<svg width="18" height="18" viewBox="0 0 18 18" fill="none" xmlns="http://www.w3.org/2000/svg">
<path fill-rule="evenodd" clip-rule="evenodd" d="M18 9C18 13.9706 13.9706 18 9 18C4.02944 18 0 13.9706 0 9C0 4.02944 4.02944 0 9 0C13.9706 0 18 4.02944 18 9ZM4.49658 8.76658C4.8871 8.37605 5.52027 8.37605 5.91079 8.76658L7.57895 10.4347L12.0892 5.92447C12.4797 5.53395 13.1129 5.53395 13.5034 5.92447C13.8939 6.315 13.8939 6.94816 13.5034 7.33869L8.28605 12.5561C7.89553 12.9466 7.26236 12.9466 6.87184 12.5561L4.49658 10.1808C4.10606 9.79027 4.10606 9.1571 4.49658 8.76658Z" fill="#74AD96"/>
</svg>
