<svg width="22" height="22" viewBox="0 0 22 22" fill="none" xmlns="http://www.w3.org/2000/svg">
<path d="M6.41669 9.16663L11 3.66663L15.5834 9.16663" stroke="#335A4A" stroke-width="2" stroke-linecap="round" stroke-linejoin="round"/>
<path d="M19.25 9.16663L17.4167 16.5C17.331 17.0254 17.1006 17.4966 16.7656 17.8316C16.4306 18.1666 16.0122 18.3441 15.5833 18.3333H6.41667C5.98777 18.3441 5.56941 18.1666 5.23443 17.8316C4.89944 17.4966 4.66904 17.0254 4.58333 16.5L2.75 9.16663H19.25Z" stroke="#335A4A" stroke-width="2" stroke-linecap="round" stroke-linejoin="round"/>
<path d="M11 15.5833C12.0125 15.5833 12.8334 14.7625 12.8334 13.75C12.8334 12.7374 12.0125 11.9166 11 11.9166C9.9875 11.9166 9.16669 12.7374 9.16669 13.75C9.16669 14.7625 9.9875 15.5833 11 15.5833Z" stroke="#335A4A" stroke-width="2" stroke-linecap="round" stroke-linejoin="round"/>
</svg>
